<?xml version="1.0" encoding="UTF-8"?>
<svg xmlns="http://www.w3.org/2000/svg" xmlns:xlink="http://www.w3.org/1999/xlink" viewBox="0 0 64 64" width="64px" height="64px">
<g id="surface61182027">
<path style=" stroke:none;fill-rule:nonzero;fill:rgb(20%,20%,20%);fill-opacity:1;" d="M 32 6 C 17.640625 6 6 17.640625 6 32 C 6 46.359375 17.640625 58 32 58 C 46.359375 58 58 46.359375 58 32 C 58 17.640625 46.359375 6 32 6 Z M 25 44 L 20 44 L 20 26 L 25 26 Z M 22.484375 24 L 22.457031 24 C 20.964844 24 20 22.886719 20 21.5 C 20 20.078125 20.996094 19 22.515625 19 C 24.035156 19 24.972656 20.078125 25 21.5 C 25 22.886719 24.035156 24 22.484375 24 Z M 44 44 L 39 44 L 39 35 C 39 32 37.554688 31 36 31 C 34.554688 31 33 32 33 35 L 33 44 L 28 44 L 28 26 L 33 26 L 33 29 C 33.34375 28.019531 34.984375 26 38 26 C 42 26 44 29 44 34 Z M 44 44 "/>
</g>
</svg>
